<svg xmlns="http://www.w3.org/2000/svg" xmlns:xlink="http://www.w3.org/1999/xlink" width="423" height="371.5" viewBox="0 0 423 371.5"><defs><filter id="Rectangle_1472" width="224" height="125" x="0" y="6.5" filterUnits="userSpaceOnUse"><feOffset dx="5" dy="5" input="SourceAlpha"/><feGaussianBlur result="blur" stdDeviation="10"/><feFlood flood-opacity=".082"/><feComposite in2="blur" operator="in"/><feComposite in="SourceGraphic"/></filter><filter id="Rectangle_1474" width="224" height="125" x="199" y="86.5" filterUnits="userSpaceOnUse"><feOffset dx="5" dy="5" input="SourceAlpha"/><feGaussianBlur result="blur-2" stdDeviation="10"/><feFlood flood-opacity=".082"/><feComposite in2="blur-2" operator="in"/><feComposite in="SourceGraphic"/></filter><filter id="Rectangle_1476" width="224" height="125" x="0" y="166.5" filterUnits="userSpaceOnUse"><feOffset dx="5" dy="5" input="SourceAlpha"/><feGaussianBlur result="blur-3" stdDeviation="10"/><feFlood flood-opacity=".082"/><feComposite in2="blur-3" operator="in"/><feComposite in="SourceGraphic"/></filter><filter id="Rectangle_1478" width="224" height="125" x="199" y="246.5" filterUnits="userSpaceOnUse"><feOffset dx="5" dy="5" input="SourceAlpha"/><feGaussianBlur result="blur-4" stdDeviation="10"/><feFlood flood-opacity=".082"/><feComposite in2="blur-4" operator="in"/><feComposite in="SourceGraphic"/></filter></defs><g id="Group_269" data-name="Group 269" transform="translate(-490 -91.5)"><line id="Line_23" y2="368" fill="none" stroke="#707070" stroke-width="3" data-name="Line 23" transform="translate(696.5 91.5)"/><g id="Ellipse_50" fill="#fefaff" stroke="#af00ff" stroke-width="2" data-name="Ellipse 50" transform="translate(689 148)"><circle cx="7.5" cy="7.5" r="7.5" stroke="none"/><circle cx="7.5" cy="7.5" r="6.5" fill="none"/></g><g id="Ellipse_51" fill="#fefaff" stroke="#af00ff" stroke-width="2" data-name="Ellipse 51" transform="translate(689 228)"><circle cx="7.5" cy="7.5" r="7.5" stroke="none"/><circle cx="7.5" cy="7.5" r="6.5" fill="none"/></g><g id="Ellipse_52" fill="#fefaff" stroke="#af00ff" stroke-width="2" data-name="Ellipse 52" transform="translate(689 308)"><circle cx="7.5" cy="7.5" r="7.5" stroke="none"/><circle cx="7.5" cy="7.5" r="6.5" fill="none"/></g><g id="Ellipse_53" fill="#fefaff" stroke="#af00ff" stroke-width="2" data-name="Ellipse 53" transform="translate(689 388)"><circle cx="7.5" cy="7.5" r="7.5" stroke="none"/><circle cx="7.5" cy="7.5" r="6.5" fill="none"/></g><g filter="url(#Rectangle_1472)" transform="matrix(1, 0, 0, 1, 490, 91.5)"><rect id="Rectangle_1472-2" width="164" height="65" fill="#fff" data-name="Rectangle 1472" transform="translate(25 31.5)"/></g><g filter="url(#Rectangle_1474)" transform="matrix(1, 0, 0, 1, 490, 91.5)"><rect id="Rectangle_1474-2" width="164" height="65" fill="#fff" data-name="Rectangle 1474" transform="translate(224 111.5)"/></g><g filter="url(#Rectangle_1476)" transform="matrix(1, 0, 0, 1, 490, 91.5)"><rect id="Rectangle_1476-2" width="164" height="65" fill="#fff" data-name="Rectangle 1476" transform="translate(25 191.5)"/></g><g filter="url(#Rectangle_1478)" transform="matrix(1, 0, 0, 1, 490, 91.5)"><rect id="Rectangle_1478-2" width="164" height="65" fill="#fff" data-name="Rectangle 1478" transform="translate(224 271.5)"/></g><rect id="Rectangle_1473" width="5" height="65" fill="#57db4c" data-name="Rectangle 1473" transform="translate(515 123)"/><rect id="Rectangle_1475" width="5" height="65" fill="#ea8b8b" data-name="Rectangle 1475" transform="translate(873 203)"/><rect id="Rectangle_1477" width="5" height="65" fill="#eea23a" data-name="Rectangle 1477" transform="translate(515 283)"/><rect id="Rectangle_1479" width="5" height="65" fill="#ae00fe" data-name="Rectangle 1479" transform="translate(873 363)"/><text id="Registrations_Open" fill="#4d4f5c" data-name="Registrations Open" font-family="SourceSansPro-Regular, Source Sans Pro" font-size="13" transform="translate(597 160)"><tspan x="-51.389" y="0">Registrations Open</tspan></text><text id="Registrations_Close" fill="#4d4f5c" data-name="Registrations Close" font-family="SourceSansPro-Regular, Source Sans Pro" font-size="13" transform="translate(796 240)"><tspan x="-51.525" y="0">Registrations Close</tspan></text><text id="Announcement_of_Shortlisted_Candidates" fill="#4d4f5c" data-name="Announcement of Shortlisted Candidates" font-family="SourceSansPro-Regular, Source Sans Pro" font-size="13" transform="translate(597 310)"><tspan x="-48.405" y="0">Announcement of</tspan><tspan x="-61.704" y="20">Shortlisted Candidates</tspan></text><text id="Announcement_of_Final_Fellows" fill="#4d4f5c" data-name="Announcement of Final Fellows" font-family="SourceSansPro-Regular, Source Sans Pro" font-size="13" transform="translate(796 390)"><tspan x="-48.405" y="0">Announcement of</tspan><tspan x="-35.165" y="20">Final Fellows</tspan></text></g></svg>